<svg xmlns="http://www.w3.org/2000/svg" viewBox="0 0 32 32" width="32" height="32">
  <rect width="32" height="32" rx="2" fill="#F5F1E9"/>
  <polygon points="19.17,3.20 21.94,4.39 26.56,4.59 28.87,4.72 30.19,4.39 29.00,6.70 31.18,8.02 31.84,9.67 31.18,11.65 29.53,12.31 27.88,13.49 27.55,14.94 27.88,16.26 27.88,16.73 27.55,17.58 28.54,18.90 27.88,20.22 26.89,21.54 25.90,23.19 22.27,24.51 20.95,24.84 17.98,24.97 16.00,25.83 14.02,26.82 13.03,27.15 11.05,27.81 8.41,28.47 5.77,28.80 3.46,28.47 2.47,28.14 1.48,27.15 0.16,26.49 1.15,25.17 2.47,24.18 2.14,23.19 3.13,22.20 2.47,21.67 4.12,21.21 4.78,20.22 3.46,19.56 2.47,18.57 2.14,18.24 2.47,17.58 1.48,16.92 0.49,16.26 1.15,15.47 1.48,14.94 1.15,14.28 2.80,13.62 2.14,12.96 0.82,12.64 1.48,11.65 2.47,10.99 5.11,10.99 8.74,10.66 10.72,10.33 12.04,9.34 12.70,8.68 11.05,8.02 12.37,7.03 13.69,5.71 13.03,4.72 15.67,4.06 17.65,3.73 19.17,3.20" fill="#6B8F71" fill-opacity="0.22" stroke="#1B3326" stroke-width="0.7" stroke-linejoin="round"/>
</svg>